# File created by Blade
# Date/Time:  Tue Jan 27 19:05:11 2015
#---------------------------------------------------------
:version 1.10
:name HOM
:units
  mass 1.0
  length 1.000000
  angle deg
:documentation
     Acclaim Skeleton File
:root
   axis xyz
   order TX TY TZ RX RY RZ
   position 0.000000 0.000000 0.000000
   orientation 0 0 0
:bonedata
   begin
      id 1
      name Spine_dum
      direction 0.000000 1.000000 0.000000
      length 5.195262
      axis 0.0 0.0 0.0 xyz
   end
   begin
      id 2
      name LeftUpLeg_dum
      direction 1.000000 0.000000 0.000000
      length 3.351363
      axis 0.0 0.0 0.0 xyz
   end
   begin
      id 3
      name RightUpLeg_dum
      direction -1.000000 0.000000 0.000000
      length 3.351363
      axis 0.0 0.0 0.0 xyz
   end
   begin
      id 4
      name Spine
      direction 0.000000 1.000000 0.000000
      length 0.000000
      axis 0.0 0.0 0.0 xyz
      dof rx ry rz
   end
   begin
      id 5
      name Spine_dum1
      direction 0.000000 1.000000 0.000000
      length 15.653875
      axis 0.0 0.0 0.0 xyz
   end
   begin
      id 6
      name Spine_dum2
      direction 0.000000 1.000000 0.000000
      length 10.329768
      axis 0.0 0.0 0.0 xyz
   end
   begin
      id 7
      name Spine_dum3
      direction 0.000000 1.000000 0.000000
      length 10.329768
      axis 0.0 0.0 0.0 xyz
   end
   begin
      id 8
      name Head
      direction 0.000000 1.000000 0.000000
      length 4.527550
      axis 0.0 0.0 0.0 xyz
      dof rx ry rz
   end
   begin
      id 9
      name LeftShoulder
      direction 1.000000 0.000000 0.000000
      length 6.996006
      axis 0.0 0.0 -90.0 xyz
      dof rx ry rz
   end
   begin
      id 10
      name LeftArm
      direction 1.000000 0.000000 0.000000
      length 10.209302
      axis 0.0 0.0 -90.0 xyz
      dof rx ry rz
   end
   begin
      id 11
      name LeftForeArm
      direction 1.000000 0.000000 0.000000
      length 8.563163
      axis 0.0 0.0 -90.0 xyz
      dof ry rz rx
   end
   begin
      id 12
      name LeftHand
      direction 0.000000 0.000000 0.000000
      length 0.000000
      axis 0.0 0.0 -90.0 xyz
      dof rx ry rz
   end
   begin
      id 13
      name LeftHand_dum1
      direction 0.000000 0.000000 0.000000
      length 0.000000
      axis 0.0 0.0 -90.0 xyz
   end
   begin
      id 14
      name LeftHand_dum2
      direction 1.000000 0.000000 0.000000
      length 3.937000
      axis 0.0 0.0 -90.0 xyz
   end
   begin
      id 15
      name LeftHandThumb1
      direction 0.000000 0.000000 1.000000
      length 3.937000
      axis 0.0 0.0 -90.0 xyz
      dof rx rz ry
   end
   begin
      id 16
      name RightShoulder
      direction -1.000000 0.000000 0.000000
      length 6.996006
      axis 0.0 0.0 90.0 xyz
      dof rx ry rz
   end
   begin
      id 17
      name RightArm
      direction -1.000000 0.000000 0.000000
      length 10.209302
      axis 0.0 0.0 90.0 xyz
      dof rx ry rz
   end
   begin
      id 18
      name RightForeArm
      direction -1.000000 0.000000 0.000000
      length 8.563163
      axis 0.0 0.0 90.0 xyz
      dof ry rz rx
   end
   begin
      id 19
      name RightHand
      direction 0.000000 0.000000 0.000000
      length 0.000000
      axis 0.0 0.0 90.0 xyz
      dof rx ry rz
   end
   begin
      id 20
      name RightHand_dum1
      direction 0.000000 0.000000 0.000000
      length 0.000000
      axis 0.0 0.0 90.0 xyz
   end
   begin
      id 21
      name RightHand_dum2
      direction -1.000000 0.000000 0.000000
      length 3.937000
      axis 0.0 0.0 90.0 xyz
   end
   begin
      id 22
      name RightHandThumb1
      direction 0.000000 0.000000 1.000000
      length 3.937000
      axis 0.0 0.0 90.0 xyz
      dof rx rz ry
   end
   begin
      id 23
      name LeftUpLeg
      direction 0.000000 -1.000000 0.000000
      length 16.346831
      axis 0.0 0.0 0.0 xyz
      dof rx ry rz
   end
   begin
      id 24
      name LeftLeg
      direction 0.000000 -1.000000 0.000000
      length 13.959795
      axis 0.0 0.0 0.0 xyz
      dof rx ry rz
   end
   begin
      id 25
      name LeftFoot
      direction 0.000000 -0.258819 0.965926
      length 5.165550
      axis 15.0 0.0 0.0 xyz
      dof rx ry rz
   end
   begin
      id 26
      name LeftToeBase
      direction 0.000000 0.000000 1.000000
      length 2.952750
      axis 0.0 0.0 0.0 xyz
      dof rx ry rz
   end
   begin
      id 27
      name RightUpLeg
      direction 0.000000 -1.000000 0.000000
      length 16.346831
      axis 0.0 0.0 0.0 xyz
      dof rx ry rz
   end
   begin
      id 28
      name RightLeg
      direction 0.000000 -1.000000 0.000000
      length 13.959795
      axis 0.0 0.0 0.0 xyz
      dof rx ry rz
   end
   begin
      id 29
      name RightFoot
      direction 0.000000 -0.258819 0.965926
      length 5.165550
      axis 15.0 0.0 0.0 xyz
      dof rx ry rz
   end
   begin
      id 30
      name RightToeBase
      direction 0.000000 0.000000 1.000000
      length 2.952750
      axis 0.0 0.0 0.0 xyz
      dof rx ry rz
   end
:hierarchy
   begin
      root Spine_dum LeftUpLeg_dum RightUpLeg_dum
      Spine_dum Spine
      LeftUpLeg_dum LeftUpLeg
      RightUpLeg_dum RightUpLeg
      Spine Spine_dum1 Spine_dum2 Spine_dum3
      Spine_dum1 Head
      Spine_dum2 LeftShoulder
      Spine_dum3 RightShoulder
      LeftShoulder LeftArm
      LeftArm LeftForeArm
      LeftForeArm LeftHand
      LeftHand LeftHand_dum1 LeftHand_dum2
      LeftHand_dum1 LeftHandThumb1
      RightShoulder RightArm
      RightArm RightForeArm
      RightForeArm RightHand
      RightHand RightHand_dum1 RightHand_dum2
      RightHand_dum1 RightHandThumb1
      LeftUpLeg LeftLeg
      LeftLeg LeftFoot
      LeftFoot LeftToeBase
      RightUpLeg RightLeg
      RightLeg RightFoot
      RightFoot RightToeBase
   end

# File created by Blade
# Date/Time:  Tue Jan 27 19:05:02 2015
# Frame Rate: 120.000 fps
#------------------------------------------------------
:FULLY-SPECIFIED
:DEGREES
1
root -5.852265 31.775086 -4.882052 4.016124 4.906304 2.530250
Spine -6.340096 -6.468543 -2.801013
Head 8.253759 11.299837 1.381348
LeftShoulder -16.671267 13.624946 22.793856
LeftArm 23.356694 -33.962485 -34.524432
LeftForeArm -29.598596 0.000000 6.751843
LeftHand -13.093089 -0.000000 7.184464
LeftHandThumb1 -26.253704 0.000000 33.147579
RightShoulder -11.731659 5.241898 -34.723243
RightArm 17.404320 12.842956 35.248592
RightForeArm -24.048614 -0.000000 5.673621
RightHand -14.770506 -0.000000 16.064845
RightHandThumb1 -24.326973 -0.000000 -32.862282
LeftUpLeg 0.462025 -5.690773 -4.671346
LeftLeg 2.023207 -0.000000 -0.000000
LeftFoot -18.066147 16.882268 -14.190025
LeftToeBase 11.094244 -0.000000 -0.000000
RightUpLeg 2.754319 2.008056 -0.730373
RightLeg -2.677936 -0.000000 0.000000
RightFoot -15.345473 -10.151792 8.448708
RightToeBase 4.078799 -0.000000 -0.000000
2
root -5.851886 31.774994 -4.885546 4.018041 4.916299 2.525743
Spine -6.328359 -6.486091 -2.793811
Head 8.248039 11.311770 1.388725
LeftShoulder -16.683905 13.624587 22.787833
LeftArm 23.351272 -33.971826 -34.547448
LeftForeArm -29.686116 -0.000000 6.767303
LeftHand -13.110383 -0.000000 7.277150
LeftHandThumb1 -26.253704 0.000000 33.147579
RightShoulder -11.728187 5.230539 -34.725016
RightArm 17.407322 12.875337 35.264046
RightForeArm -24.083219 -0.000000 5.671513
RightHand -14.757767 -0.000000 16.049198
RightHandThumb1 -24.326973 -0.000000 -32.862282
LeftUpLeg 0.458657 -5.689016 -4.667109
LeftLeg 2.010714 -0.000000 -0.000000
LeftFoot -18.063453 16.880527 -14.175215
LeftToeBase 11.157857 -0.000000 -0.000000
RightUpLeg 2.750673 2.013719 -0.726715
RightLeg -2.685669 -0.000000 0.000000
RightFoot -15.349400 -10.151656 8.482447
RightToeBase 4.112836 -0.000000 -0.000000
3
root -5.851916 31.775278 -4.889041 4.026208 4.918123 2.521559
Spine -6.326031 -6.490810 -2.789692
Head 8.244933 11.304912 1.388625
LeftShoulder -16.682693 13.616711 22.783295
LeftArm 23.325149 -33.983198 -34.560053
LeftForeArm -29.756863 -0.000000 6.813589
LeftHand -13.111466 -0.000000 7.384299
LeftHandThumb1 -26.253704 0.000000 33.147579
RightShoulder -11.735611 5.234876 -34.726060
RightArm 17.402294 12.826174 35.255903
RightForeArm -24.051129 -0.000000 5.675084
RightHand -14.737110 -0.000000 16.034835
RightHandThumb1 -24.326973 -0.000000 -32.862282
LeftUpLeg 0.440056 -5.689628 -4.660802
LeftLeg 2.018020 -0.000000 -0.000000
LeftFoot -18.057927 16.876361 -14.177071
LeftToeBase 11.108558 -0.000000 -0.000000
RightUpLeg 2.735989 2.012306 -0.723761
RightLeg -2.687757 -0.000000 0.000000
RightFoot -15.347709 -10.153339 8.499044
RightToeBase 4.157090 -0.000000 -0.000000
4
root -5.850969 31.775079 -4.892444 4.029667 4.919656 2.518152
Spine -6.312669 -6.498712 -2.778538
Head 8.225960 11.332476 1.386285
LeftShoulder -16.706728 13.635946 22.748073
LeftArm 23.350051 -34.012696 -34.576820
LeftForeArm -29.839327 -0.000000 6.821940
LeftHand -13.078372 -0.000000 7.438318
LeftHandThumb1 -26.253704 0.000000 33.147579
RightShoulder -11.742544 5.246446 -34.742670
RightArm 17.387577 12.805319 35.263003
RightForeArm -24.050394 -0.000000 5.693665
RightHand -14.748057 -0.000000 16.070908
RightHandThumb1 -24.326973 -0.000000 -32.862282
LeftUpLeg 0.433306 -5.698406 -4.659979
LeftLeg 2.010714 -0.000000 -0.000000
LeftFoot -18.051026 16.887732 -14.156133
LeftToeBase 11.099031 -0.000000 -0.000000
RightUpLeg 2.723588 2.000967 -0.723141
RightLeg -2.682468 -0.000000 0.000000
RightFoot -15.355364 -10.140168 8.513511
RightToeBase 4.189049 -0.000000 -0.000000
5
root -5.851000 31.775707 -4.896015 4.036750 4.912592 2.521279
Spine -6.310260 -6.488957 -2.790594
Head 8.236696 11.293390 1.391424
LeftShoulder -16.684178 13.625377 22.764531
LeftArm 23.307649 -34.055675 -34.613546
LeftForeArm -29.860839 0.000000 6.884858
LeftHand -13.101264 -0.000000 7.561791
LeftHandThumb1 -26.253704 0.000000 33.147579
RightShoulder -11.744061 5.236768 -34.743171
RightArm 17.392068 12.881707 35.308481
RightForeArm -24.135053 -0.000000 5.679684
RightHand -14.740020 -0.000000 16.070003
RightHandThumb1 -24.326973 -0.000000 -32.862282
LeftUpLeg 0.410208 -5.686791 -4.663453
LeftLeg 2.032957 -0.000000 -0.000000
LeftFoot -18.064909 16.877311 -14.200010
LeftToeBase 11.137186 -0.000000 -0.000000
RightUpLeg 2.706864 1.997722 -0.726606
RightLeg -2.679379 -0.000000 0.000000
RightFoot -15.348133 -10.131990 8.516095
RightToeBase 4.157140 -0.000000 -0.000000
6
root -5.854698 31.775992 -4.902941 4.066896 4.911624 2.507854
Spine -6.325651 -6.498354 -2.787713
Head 8.236683 11.290404 1.403519
LeftShoulder -16.686248 13.617409 22.772472
LeftArm 23.291615 -34.099811 -34.644793
LeftForeArm -29.876386 -0.000000 6.924960
LeftHand -13.086215 -0.000000 7.650949
LeftHandThumb1 -26.253704 0.000000 33.147579
RightShoulder -11.731886 5.235969 -34.730374
RightArm 17.375952 12.891175 35.317893
RightForeArm -24.138687 -0.000000 5.689166
RightHand -14.707491 -0.000000 16.110235
RightHandThumb1 -24.326973 -0.000000 -32.862282
LeftUpLeg 0.356159 -5.689018 -4.635196
LeftLeg 2.053687 -0.000000 -0.000000
LeftFoot -18.064516 16.853873 -14.202119
LeftToeBase 11.086016 -0.000000 -0.000000
RightUpLeg 2.656119 2.018229 -0.708215
RightLeg -2.666183 -0.000000 0.000000
RightFoot -15.341582 -10.153528 8.516828
RightToeBase 4.156563 -0.000000 -0.000000
7
root -5.854844 31.775995 -4.907840 4.081560 4.905899 2.507876
Spine -6.324702 -6.500882 -2.793079
Head 8.235856 11.290677 1.420065
LeftShoulder -16.698322 13.600265 22.774597
LeftArm 23.289432 -34.117683 -34.670830
LeftForeArm -29.910875 -0.000000 6.944794
LeftHand -13.054945 -0.000000 7.749668
LeftHandThumb1 -26.253704 0.000000 33.147579
RightShoulder -11.730002 5.236776 -34.719916
RightArm 17.371826 12.864907 35.309446
RightForeArm -24.122041 -0.000000 5.684129
RightHand -14.726561 0.000000 16.115015
RightHandThumb1 -24.326973 -0.000000 -32.862282
LeftUpLeg 0.330943 -5.691831 -4.636349
LeftLeg 2.056940 -0.000000 -0.000000
LeftFoot -18.077100 16.861531 -14.238268
LeftToeBase 11.106021 -0.000000 -0.000000
RightUpLeg 2.627441 2.036108 -0.709940
RightLeg -2.653040 -0.000000 0.000000
RightFoot -15.323376 -10.182925 8.471716
RightToeBase 4.084613 -0.000000 -0.000000
8
root -5.850403 31.776018 -4.907866 4.064692 4.903950 2.520717
Spine -6.300251 -6.501603 -2.792052
Head 8.248563 11.350312 1.383472
LeftShoulder -16.699657 13.592730 22.746134
LeftArm 23.273259 -34.114529 -34.663313
LeftForeArm -29.956958 -0.000000 6.954232
LeftHand -13.029843 -0.000000 7.839781
LeftHandThumb1 -26.253704 0.000000 33.147579
RightShoulder -11.740466 5.268043 -34.744338
RightArm 17.358841 12.824331 35.311856
RightForeArm -24.124290 -0.000000 5.679245
RightHand -14.716882 0.000000 16.147166
RightHandThumb1 -24.326973 -0.000000 -32.862282
LeftUpLeg 0.359054 -5.716091 -4.657332
LeftLeg 2.035700 -0.000000 -0.000000
LeftFoot -18.052724 16.895454 -14.199951
LeftToeBase 11.084480 -0.000000 -0.000000
RightUpLeg 2.653504 2.021105 -0.731127
RightLeg -2.670717 -0.000000 0.000000
RightFoot -15.321342 -10.172576 8.462000
RightToeBase 4.097695 -0.000000 -0.000000
9
root -5.849194 31.776389 -4.910695 4.062345 4.901172 2.518472
Spine -6.286687 -6.507855 -2.785416
Head 8.248791 11.335985 1.391066
LeftShoulder -16.709693 13.609009 22.723512
LeftArm 23.282745 -34.179158 -34.695156
LeftForeArm -29.910839 -0.000000 6.987056
LeftHand -13.035589 0.000000 7.892290
LeftHandThumb1 -26.253704 0.000000 33.147579
RightShoulder -11.740003 5.261580 -34.748366
RightArm 17.371975 12.803346 35.319054
RightForeArm -24.106066 -0.000000 5.661457
RightHand -14.695214 -0.000000 16.125255
RightHandThumb1 -24.326973 -0.000000 -32.862282
LeftUpLeg 0.357374 -5.718161 -4.659152
LeftLeg 2.033826 -0.000000 -0.000000
LeftFoot -18.047080 16.910895 -14.203259
LeftToeBase 11.081460 -0.000000 -0.000000
RightUpLeg 2.647738 2.000934 -0.733123
RightLeg -2.666815 -0.000000 0.000000
RightFoot -15.314408 -10.137465 8.480696
RightToeBase 4.096812 -0.000000 -0.000000
10
root -5.849909 31.776975 -4.913833 4.066567 4.893714 2.517542
Spine -6.285007 -6.508270 -2.797248
Head 8.276108 11.297973 1.403074
LeftShoulder -16.711345 13.622925 22.739502
LeftArm 23.287124 -34.211300 -34.738824
LeftForeArm -29.908290 -0.000000 7.017351
LeftHand -13.014586 0.000000 7.972985
LeftHandThumb1 -26.253704 0.000000 33.147579
RightShoulder -11.725409 5.274614 -34.730026
RightArm 17.354552 12.770787 35.305448
RightForeArm -24.100813 -0.000000 5.650816
RightHand -14.708678 0.000000 16.127352
RightHandThumb1 -24.326973 -0.000000 -32.862282
LeftUpLeg 0.346591 -5.725092 -4.657448
LeftLeg 2.034905 -0.000000 -0.000000
LeftFoot -18.046540 16.928466 -14.197249
LeftToeBase 11.099671 -0.000000 -0.000000
RightUpLeg 2.634869 1.999859 -0.732733
RightLeg -2.663085 -0.000000 0.000000
RightFoot -15.301563 -10.131761 8.475982
RightToeBase 4.105898 -0.000000 -0.000000
11
root -5.854242 31.776514 -4.920652 4.090695 4.882415 2.498017
Spine -6.289950 -6.491349 -2.794319
Head 8.266766 11.274517 1.422175
LeftShoulder -16.695498 13.603528 22.767100
LeftArm 23.265282 -34.247642 -34.765632
LeftForeArm -29.908417 -0.000000 7.053186
LeftHand -13.015172 -0.000000 8.039156
LeftHandThumb1 -26.253704 0.000000 33.147579
RightShoulder -11.744700 5.265967 -34.717626
RightArm 17.365087 12.741798 35.308245
RightForeArm -24.093318 -0.000000 5.643764
RightHand -14.704162 -0.000000 16.151344
RightHandThumb1 -24.326973 -0.000000 -32.862282
LeftUpLeg 0.304377 -5.694024 -4.626886
LeftLeg 2.041418 -0.000000 -0.000000
LeftFoot -18.053382 16.906598 -14.186064
LeftToeBase 11.088021 -0.000000 -0.000000
RightUpLeg 2.584553 2.018351 -0.706733
RightLeg -2.640287 -0.000000 0.000000
RightFoot -15.307554 -10.149839 8.461411
RightToeBase 4.106003 -0.000000 -0.000000
12
root -5.853909 31.775612 -4.924823 4.099031 4.872690 2.511027
Spine -6.284498 -6.491372 -2.809515
Head 8.284450 11.323400 1.417911
LeftShoulder -16.690816 13.599862 22.757272
LeftArm 23.237482 -34.262454 -34.740048
LeftForeArm -29.886305 0.000000 7.064539
LeftHand -12.977094 -0.000000 8.000753
LeftHandThumb1 -26.253704 0.000000 33.147579
RightShoulder -11.748177 5.267546 -34.726623
RightArm 17.367923 12.685567 35.312618
RightForeArm -24.051049 0.000000 5.637465
RightHand -14.709082 -0.000000 16.174343
RightHandThumb1 -24.326973 -0.000000 -32.862282
LeftUpLeg 0.283820 -5.679224 -4.641091
LeftLeg 2.051590 -0.000000 -0.000000
LeftFoot -18.057425 16.905901 -14.212416
LeftToeBase 11.096233 -0.000000 -0.000000
RightUpLeg 2.615483 2.185903 -0.722939
RightLeg -2.738495 -0.000000 0.000000
RightFoot -15.286631 -10.282570 8.519758
RightToeBase 4.129797 -0.000000 -0.000000
